PathFileType	4	(X/Y/Z)	/Users/itak/Documents/Research/Walk-IL/dataset/trc/00458_00167.trc
DataRate	CameraRate	NumFrames	NumMarkers	Units	OrigDataRate	OrigDataStartFrame	OrigNumFrames
100.000000	100.000000	4	53	mm	100.000000	323	517
Frame#	Time	RPSI			LPSI			L3			STRN			T10			C7			CLAV			RBAK			LBAK			LSHO			LUPA			LAEL			LAOL			LWTS			LWPS			LFRA			LIFD			LHPS			LHTS			RSHO			RUPA			RAEL			RAOL			RWTS			RWPS			RFRA			RIFD			RHTS			RHPS			RBHD			LFHD			RFHD			LBHD			LHIP			RHIP			RASI			LASI			LKNE			LTHI			LANK			LTIP			LTOE			LMT1			LMT5			LHEE			RKNE			RTHI			RANK			RTIP			RTOE			RMT1			RMT5			RHEE			
		X1	Y1	Z1	X2	Y2	Z2	X3	Y3	Z3	X4	Y4	Z4	X5	Y5	Z5	X6	Y6	Z6	X7	Y7	Z7	X8	Y8	Z8	X9	Y9	Z9	X10	Y10	Z10	X11	Y11	Z11	X12	Y12	Z12	X13	Y13	Z13	X14	Y14	Z14	X15	Y15	Z15	X16	Y16	Z16	X17	Y17	Z17	X18	Y18	Z18	X19	Y19	Z19	X20	Y20	Z20	X21	Y21	Z21	X22	Y22	Z22	X23	Y23	Z23	X24	Y24	Z24	X25	Y25	Z25	X26	Y26	Z26	X27	Y27	Z27	X28	Y28	Z28	X29	Y29	Z29	X30	Y30	Z30	X31	Y31	Z31	X32	Y32	Z32	X33	Y33	Z33	X34	Y34	Z34	X35	Y35	Z35	X36	Y36	Z36	X37	Y37	Z37	X38	Y38	Z38	X39	Y39	Z39	X40	Y40	Z40	X41	Y41	Z41	X42	Y42	Z42	X43	Y43	Z43	X44	Y44	Z44	X45	Y45	Z45	X46	Y46	Z46	X47	Y47	Z47	X48	Y48	Z48	X49	Y49	Z49	X50	Y50	Z50	X51	Y51	Z51	X52	Y52	Z52	X53	Y53	Z53	

324	3.23	83.07049560546875	945.823974609375	-426.0732116699219	225.0709228515625	935.4063720703125	-438.749755859375	129.0301971435547	1043.421752929688	-420.1117248535156	176.7088012695312	1242.0107421875	-147.5798950195312	123.332893371582	1167.4521484375	-430.5226135253906	120.4432754516602	1434.70654296875	-360.2899780273438	172.4522247314453	1354.669189453125	-184.1433563232422	16.58694458007812	1315.21630859375	-403.7771301269531	210.844970703125	1389.367919921875	-413.6407775878906	310.7643432617188	1413.19970703125	-330.2443542480469	405.5834045410156	1298.177124023438	-360.3157348632812	458.3298645019531	1087.294677734375	-343.7247314453125	378.6112060546875	1064.989501953125	-405.4763488769531	440.3117980957031	891.7206420898438	-239.5467071533203	488.5624389648438	874.8890380859375	-293.5150146484375	476.8229675292969	1002.056274414062	-317.6594848632812	457.1656494140625	722.84130859375	-223.8202362060547	494.7318420410156	797.5509033203125	-279.2809143066406	458.7281188964844	807.3213500976562	-217.8973388671875	-21.92402267456055	1408.768310546875	-264.7137145996094	-100.9442520141602	1350.11767578125	-267.2840881347656	-175.3581695556641	1072.7021484375	-224.4825592041016	-145.1161041259766	1044.22900390625	-279.0074768066406	-115.3311004638672	892.1134643554688	-92.45216369628906	-185.6884155273438	868.0114135742188	-141.3226013183594	-185.3209838867188	1016.795227050781	-206.8451995849609	-131.4600219726562	741.8995361328125	-50.84304046630859	-129.3371887207031	801.8118896484375	-52.58646774291992	-182.6573944091797	787.3206787109375	-105.563117980957	47.91738128662109	1628.192504882812	-255.72412109375	227.9821929931641	1654.03857421875	-157.0996704101562	100.274169921875	1650.396728515625	-130.1518096923828	218.4004974365234	1636.499389648438	-308.5974731445312	356.8080749511719	850.9303588867188	-295.9106750488281	-45.87295150756836	845.02099609375	-296.1852111816406	22.79596710205078	889.3179931640625	-197.5561828613281	277.2868041992188	897.7916259765625	-207.9701232910156	373.5879821777344	468.6958312988281	-125.4960403442383	376.3603820800781	623.1953125	-152.0894165039062	393.5416259765625	65.17082977294922	-273.9572143554688	400.4120483398438	318.6088562011719	-165.0381774902344	384.144287109375	63.12248992919922	-39.12922286987305	335.7481384277344	58.29400634765625	-100.0168914794922	442.3956604003906	59.19195175170898	-133.1462860107422	319.6387939453125	67.45536041259766	-298.2936706542969	34.78350448608398	453.3030395507812	-294.572021484375	-27.17487716674805	708.3359375	-254.912353515625	75.19287872314453	39.26752471923828	-388.2806091308594	45.19300842285156	309.1568603515625	-307.3515625	168.8488464355469	43.23289108276367	-185.3271484375	187.1045532226562	49.45270156860352	-256.3830261230469	78.47907257080078	44.45884704589844	-251.8763275146484	109.1002807617188	32.32518768310547	-461.0977172851562	
325	3.24	85.98234558105469	945.33251953125	-419.8570556640625	228.0343170166016	934.6489868164062	-431.5299682617188	131.8693084716797	1042.681640625	-413.7496643066406	178.1142883300781	1241.223022460938	-141.0021820068359	126.071533203125	1166.617553710938	-424.1893005371094	123.0522384643555	1433.892456054688	-353.9332580566406	174.2714080810547	1353.87939453125	-177.6429138183594	19.21614265441895	1314.638793945312	-397.8793334960938	213.5801696777344	1388.373657226562	-406.9358825683594	313.221923828125	1412.069946289062	-323.19580078125	408.1000671386719	1297.0654296875	-352.9523010253906	461.0025024414062	1086.31787109375	-336.3897094726562	381.5646362304688	1064.076171875	-398.5210266113281	443.2310485839844	890.2525024414062	-233.1754608154297	491.59521484375	873.8243408203125	-287.138671875	479.6146240234375	1001.014465332031	-310.6770629882812	460.9934692382812	721.50830078125	-217.9038848876953	498.1715698242188	796.5244750976562	-273.1231079101562	462.0115356445312	805.9054565429688	-211.7634582519531	-19.70406341552734	1408.238403320312	-258.8900146484375	-98.79197692871094	1349.658569335938	-261.7073974609375	-173.5415954589844	1072.30224609375	-218.9219207763672	-143.3612976074219	1043.696166992188	-273.403076171875	-112.7235336303711	892.4854736328125	-86.05279541015625	-183.1268768310547	867.8988037109375	-134.6637725830078	-183.4589385986328	1016.448364257812	-201.0008392333984	-128.85009765625	742.4363403320312	-43.68723678588867	-126.77734375	802.3314819335938	-45.81050491333008	-180.2748870849609	787.450927734375	-98.51142120361328	50.43748092651367	1627.422119140625	-250.0385589599609	230.3478851318359	1653.48779296875	-151.1128540039062	102.5792465209961	1650.079467773438	-124.4225082397461	221.0201110839844	1635.366455078125	-302.5606079101562	358.6927795410156	850.0546264648438	-288.0833435058594	-44.09654235839844	844.6830444335938	-291.26806640625	23.73485374450684	888.6414184570312	-192.4437713623047	278.6715087890625	896.9933471679688	-200.3682098388672	374.2515258789062	468.5494995117188	-115.0805435180664	377.0346984863281	622.5870971679688	-144.282958984375	401.1543273925781	59.10195541381836	-242.4979553222656	402.974609375	317.5810546875	-146.0372772216797	382.565673828125	66.66028594970703	-8.380033493041992	336.6045532226562	59.30974578857422	-70.84898376464844	444.4768981933594	58.96488189697266	-99.84947204589844	328.2437744140625	60.28773880004883	-269.7696533203125	35.8997688293457	452.9260559082031	-291.1786499023438	-25.88988876342773	707.9866943359375	-250.4922332763672	75.26801300048828	39.32769393920898	-388.3460693359375	46.0992546081543	308.7038879394531	-305.0523071289062	168.8589324951172	43.16608428955078	-185.2362823486328	187.2183837890625	49.34214401245117	-256.3607482910156	78.49736022949219	44.42218399047852	-251.8787841796875	109.2286529541016	32.5858268737793	-461.1616516113281	
326	3.25	88.87487030029297	944.78466796875	-413.5171813964844	230.9626159667969	933.8165893554688	-424.2042846679688	134.7349700927734	1041.842041015625	-407.2106628417969	179.5706329345703	1240.361572265625	-134.37353515625	128.8888702392578	1165.708251953125	-417.795654296875	125.7555313110352	1433.011352539062	-347.5618896484375	176.1299285888672	1353.021484375	-171.0875091552734	21.8994140625	1313.959838867188	-391.9430236816406	216.363525390625	1387.289428710938	-400.1795043945312	315.7269592285156	1410.873901367188	-316.0897521972656	410.6463012695312	1295.876342773438	-345.5306091308594	463.6370849609375	1085.232177734375	-329.0230407714844	384.4703674316406	1063.106323242188	-391.5043029785156	446.1722717285156	888.6397705078125	-226.8088684082031	494.5772705078125	872.6253051757812	-280.8435363769531	482.3626708984375	999.8535766601562	-303.7028503417969	464.7621154785156	720.0029296875	-212.1443481445312	501.5289001464844	795.3444213867188	-267.1173706054688	465.2934875488281	804.3095703125	-205.7297058105469	-17.43591117858887	1407.626342773438	-253.0532531738281	-96.5926513671875	1349.125	-256.1332397460938	-171.6074981689453	1071.792846679688	-213.4963836669922	-141.4814147949219	1043.079956054688	-267.9181823730469	-110.0436935424805	892.6487426757812	-79.85200500488281	-180.5026397705078	867.5650024414062	-128.3664245605469	-181.4895782470703	1015.970825195312	-195.3275756835938	-126.1904754638672	742.7307739257812	-36.8790397644043	-124.188720703125	802.6165161132812	-39.33382034301758	-177.8201293945312	787.3768310546875	-91.79237365722656	52.97380065917969	1626.580810546875	-244.2742156982422	232.7708282470703	1652.833862304688	-145.0691986083984	104.9394226074219	1649.657592773438	-118.6201477050781	223.6473388671875	1634.166870117188	-296.47021484375	360.5291137695312	849.0628662109375	-280.2197570800781	-42.32620620727539	844.2847290039062	-286.1911926269531	24.59927940368652	887.8336791992188	-187.1684265136719	280.0569152832031	896.019287109375	-192.6993408203125	375.0057067871094	468.1524963378906	-105.1154937744141	377.8900146484375	621.7244262695312	-136.6933135986328	408.108154296875	53.93134689331055	-210.884521484375	405.2640380859375	316.8195190429688	-127.4018402099609	380.3208312988281	70.84609985351562	21.83941841125488	336.8570251464844	61.02350616455078	-42.04953765869141	445.8057250976562	59.58280181884766	-66.82714080810547	336.2978820800781	53.92775344848633	-241.0387268066406	36.98899078369141	452.5119323730469	-287.6865539550781	-24.6103515625	707.551513671875	-245.9764404296875	75.36004638671875	39.38967514038086	-388.4169616699219	46.97616195678711	308.2145385742188	-302.6847534179688	168.8621978759766	43.08847808837891	-185.1330413818359	187.3254547119141	49.25918579101562	-256.3592529296875	78.51593017578125	44.3802490234375	-251.8946228027344	109.3430938720703	32.86233901977539	-461.2149963378906	
327	3.26	91.76589202880859	944.171875	-407.0525817871094	233.8699951171875	932.9080200195312	-416.7703247070312	137.6258087158203	1040.896118164062	-400.5098571777344	181.0783233642578	1239.424560546875	-127.6876907348633	131.7835235595703	1164.718017578125	-411.3388366699219	128.5522308349609	1432.056884765625	-341.1740112304688	178.0292816162109	1352.090087890625	-164.4733276367188	24.63945960998535	1313.175170898438	-385.9672546386719	219.2010803222656	1386.106689453125	-393.367431640625	318.2794799804688	1409.608764648438	-308.9259948730469	413.222900390625	1294.606201171875	-338.0486145019531	466.2376098632812	1084.035034179688	-321.630126953125	387.3403625488281	1062.081665039062	-384.4395751953125	449.1344909667969	886.8861083984375	-220.4435577392578	497.5081481933594	871.28515625	-274.6210632324219	485.0706481933594	998.5670166015625	-296.7347412109375	468.4249267578125	718.3163452148438	-206.53564453125	504.781005859375	793.9982299804688	-261.2549743652344	468.5640869140625	802.5396118164062	-199.7866668701172	-15.11898612976074	1406.926391601562	-247.2042846679688	-94.34735107421875	1348.509521484375	-250.5651397705078	-169.5626831054688	1071.16064453125	-208.1927032470703	-139.4721984863281	1042.371704101562	-262.5491027832031	-107.3531875610352	892.5758056640625	-73.87343597412109	-177.8671264648438	867.0270385742188	-122.417854309082	-179.4155731201172	1015.353942871094	-189.8248596191406	-123.484748840332	742.7643432617188	-30.42560958862305	-121.583251953125	802.6488037109375	-33.15054321289062	-175.2913818359375	787.0821533203125	-85.42138671875	55.5278205871582	1625.66943359375	-238.4268493652344	235.2518920898438	1652.074462890625	-138.9674072265625	107.3543167114258	1649.125610351562	-112.7389755249023	226.2871856689453	1632.902954101562	-290.3230285644531	362.3308715820312	847.95947265625	-272.2720336914062	-40.57793426513672	843.8303833007812	-280.9632263183594	25.42777633666992	886.8797607421875	-181.6707000732422	281.4365234375	894.8732299804688	-184.9548034667969	375.8671264648438	467.5249938964844	-95.58705902099609	378.9282836914062	620.6080932617188	-129.2770843505859	414.3177185058594	49.71662902832031	-179.2734985351562	407.2944946289062	316.3521728515625	-109.2112121582031	377.5411682128906	75.72648620605469	51.44520950317383	336.5890502929688	63.50109481811523	-13.690354347229	446.4351196289062	61.10440826416016	-34.24505996704102	343.6943969726562	48.42689895629883	-212.1969146728516	38.05372619628906	452.0518798828125	-284.0809020996094	-23.3292350769043	707.0167236328125	-241.3615112304688	75.46638488769531	39.46066665649414	-388.4837341308594	47.81819152832031	307.6869812011719	-300.2307739257812	168.8505249023438	43.00325393676758	-185.0245056152344	187.4123840332031	49.21290588378906	-256.3634948730469	78.53684997558594	44.33811187744141	-251.9288024902344	109.4393310546875	33.15630722045898	-461.2566833496094	
